<?xml version="1.0" encoding="UTF-8" standalone="no"?>
<svg width="133px" height="80px" viewBox="0 0 133 80" version="1.1" xmlns="http://www.w3.org/2000/svg" xmlns:xlink="http://www.w3.org/1999/xlink">
    <!-- Generator: Sketch 39.1 (31720) - http://www.bohemiancoding.com/sketch -->
    <title>bg-pattern-newsletter</title>
    <desc>Created with Sketch.</desc>
    <defs></defs>
    <g id="Home" stroke="none" stroke-width="1" fill="none" fill-rule="evenodd">
        <g id="bg-pattern-newsletter" fill="#E3E3E3">
            <path d="M99.25,55.5 L82.75,55.5 L82.75,52.5 L96.25,52.5 L96.25,26.91 L73.801,45.438 L45.062,22.5 L99.25,22.5 L99.25,55.5 Z M54.199,25.5 L73.77,41.605 L93.012,25.5 L54.199,25.5 Z M40.75,33 L51.25,33 L51.25,30 L40.75,30 L40.75,33 Z M31.75,25.5 L42.25,25.5 L42.25,22.5 L31.75,22.5 L31.75,25.5 Z M50.5,40.5 L61,40.5 L61,37.5 L50.5,37.5 L50.5,40.5 Z M59.5,48 L70,48 L70,45 L59.5,45 L59.5,48 Z M69.25,55.5 L79.75,55.5 L79.75,52.5 L69.25,52.5 L69.25,55.5 Z" id="Combined-Shape"></path>
        </g>
    </g>
</svg>