<svg width="315" height="280" viewBox="0 0 315 280" xmlns="http://www.w3.org/2000/svg">
    <title>clearfix-logo</title>
    <g fill="#000" fill-rule="evenodd"><path
        d="M80.903 106.116c-4.083 1.86-8.79 2.79-14.118 2.79-4.856 0-9.34-.797-13.453-2.39-4.115-1.596-7.682-3.855-10.7-6.778-3.02-2.923-5.388-6.423-7.105-10.497-1.717-4.074-2.575-8.56-2.575-13.463 0-5.02.873-9.567 2.62-13.642 1.745-4.074 4.158-7.544 7.237-10.408 3.077-2.864 6.688-5.063 10.832-6.6 4.144-1.535 8.615-2.303 13.41-2.303 4.44 0 8.805.784 13.097 2.348 4.29 1.565 7.77 3.853 10.432 6.865l-10.3 10.275c-1.42-1.948-3.286-3.395-5.594-4.34-2.308-.944-4.677-1.417-7.104-1.417-2.664 0-5.106.487-7.326 1.46-2.22.976-4.13 2.32-5.728 4.03-1.598 1.715-2.84 3.737-3.73 6.07-.886 2.333-1.33 4.886-1.33 7.662 0 2.835.444 5.433 1.33 7.794.89 2.364 2.117 4.387 3.686 6.07 1.568 1.683 3.448 2.997 5.64 3.942 2.188.945 4.586 1.416 7.192 1.416 3.018 0 5.652-.59 7.902-1.77 2.25-1.182 4.055-2.716 5.418-4.607l10.567 9.923c-2.784 3.188-6.217 5.713-10.302 7.573zM97.686 107.223V44.508h15.274v49.516h24.33v13.2M144.393 107.223V44.508h42.27v12.755h-27.617v11.87h26.105V81.27h-26.104v13.02h29.214v12.933M224.045 61.25l-7.993 21.525h15.806l-7.813-21.525zm16.87 45.973l-4.883-12.312h-24.33l-4.62 12.313H190.57l26.372-62.715h14.74l26.108 62.715h-16.872zM278.61 82.257h5.22l13.65 25.175h17.76l-16.43-26.944c4.087-1.24 7.284-3.36 9.592-6.253 2.31-2.893 3.463-6.493 3.463-10.744 0-3.6-.68-6.626-2.043-9.05-1.36-2.418-3.182-4.375-5.46-5.85-2.28-1.477-4.855-2.304-7.727-2.924-2.87-.62-5.814-.707-8.834-.707h-9.19v12.12h8.076c1.13 0 2.304-.085 3.523.092 1.22.178 2.32.43 3.302.932.98.503 1.784 1.167 2.408 2.082.625.917.938 2.09.938 3.566 0 1.594-.343 2.883-1.025 3.886-.686 1.004-1.56 1.766-2.634 2.298-1.072.53-2.26.76-3.57.964-1.308.208-2.588.168-3.836.168h-7.183v11.19zM54.76 188.775v12.933h24.33v12.49H54.76v24.36H39.752v-62.716h41.38v12.933M90.898 238.557h15.274v-62.715H90.898M155.277 238.557l-13.763-22.145-13.23 22.145h-18.116l22.022-33.13-20.246-29.585h18.292l11.722 19.488 11.543-19.488h17.672l-19.89 29.586 22.732 33.13"/></g>
</svg>
