<?xml version="1.0" encoding="UTF-8" standalone="no"?>
<svg width="315px" height="280px" viewBox="0 0 315 280" version="1.1" xmlns="http://www.w3.org/2000/svg" xmlns:xlink="http://www.w3.org/1999/xlink">
    <!-- Generator: Sketch 39.1 (31720) - http://www.bohemiancoding.com/sketch -->
    <title>clearfix-logo-white</title>
    <desc>Created with Sketch.</desc>
    <defs>
        <rect id="path-1" x="0" y="0" width="280" height="280"></rect>
        <mask id="mask-2" maskContentUnits="userSpaceOnUse" maskUnits="objectBoundingBox" x="0" y="0" width="280" height="280" fill="white">
            <use xlink:href="#path-1"></use>
        </mask>
        <polygon id="path-3" points="280 150 280 130 0 130 0 150"></polygon>
        <mask id="mask-4" maskContentUnits="userSpaceOnUse" maskUnits="objectBoundingBox" x="0" y="0" width="280" height="20" fill="white">
            <use xlink:href="#path-3"></use>
        </mask>
    </defs>
    <g id="Symbols" stroke="none" stroke-width="1" fill="none" fill-rule="evenodd">
        <g id="clearfix-logo-white">
            <g id="Clearfix-logo">
                <g id="Clear-Fix" transform="translate(32.000000, 42.000000)" fill="#FFFFFF">
                    <g id="Fix" transform="translate(7.000000, 133.000000)">
                        <polygon id="Fill-10" points="15.7595089 13.7751676 15.7595089 26.7080054 40.0892864 26.7080054 40.0892864 39.1979378 15.7595089 39.1979378 15.7595089 63.5577351 0.751675074 63.5577351 0.751675074 0.84232973 42.1325801 0.84232973 42.1325801 13.7751676"></polygon>
                        <polygon id="Fill-12" points="51.8982344 63.5571757 67.1724629 63.5571757 67.1724629 0.84177027 51.8982344 0.84177027"></polygon>
                        <polygon id="Fill-14" points="116.277318 63.5573622 102.513593 41.4120919 89.2826588 63.5573622 71.167822 63.5573622 93.1897804 30.4280378 72.9437864 0.841956757 91.2362196 0.841956757 102.957585 20.3297946 114.501353 0.841956757 132.172199 0.841956757 112.281398 30.4280378 135.013742 63.5573622"></polygon>
                    </g>
                    <g id="Clear">
                        <path d="M34.7853279,66.9055824 C29.9294674,66.9055824 25.4456246,66.1092851 21.3319303,64.5148257 C17.2173012,62.9203662 13.6504169,60.6610824 10.6322122,57.7379068 C7.61213798,54.8147311 5.24449703,51.3153122 3.52741988,47.2405824 C1.81034273,43.1658527 0.952271513,38.6789878 0.952271513,33.7771905 C0.952271513,28.7579068 1.82529822,24.2095014 3.57228635,20.1347716 C5.31740504,16.0609743 7.72991246,12.5913932 10.8088739,9.72696081 C13.8869006,6.86346081 17.4977166,4.6638527 21.6422567,3.12813649 C25.785862,1.59242027 30.2566187,0.824095946 35.0517226,0.824095946 C39.4916335,0.824095946 43.8567671,1.60827162 48.1489926,3.17196081 C52.4402834,4.73658243 55.9193042,7.02477162 58.582316,10.0374608 L48.2817226,20.3119338 C46.860951,18.3640824 44.9961884,16.9169473 42.6883694,15.9714608 C40.3796157,15.0278392 38.0110401,14.5550959 35.5835772,14.5550959 C32.9196306,14.5550959 30.4781469,15.0418257 28.2581914,16.0162176 C26.0382359,16.9906095 24.1286068,18.3342446 22.5302389,20.0461905 C20.9318709,21.7600014 19.6886958,23.7824473 18.8007136,26.1144608 C17.9136662,28.4483392 17.4687404,31.0013392 17.4687404,33.7771905 C17.4687404,36.6117851 17.9136662,39.2104743 18.8007136,41.5713932 C19.6886958,43.934177 20.9169154,45.956623 22.4863071,47.6396635 C24.0538294,49.3227041 25.9344822,50.6374338 28.1254614,51.5819878 C30.3136365,52.5265419 32.7121231,52.9983527 35.3181172,52.9983527 C38.336322,52.9983527 40.9703576,52.4090554 43.220224,51.2276635 C45.4691558,50.0462716 47.2750312,48.5124203 48.6378501,46.6205149 L59.2048383,56.5425284 C56.4212478,59.7314473 52.9880282,62.2555419 48.9033101,64.1157446 C44.8195267,65.9759473 40.1132211,66.9055824 34.7853279,66.9055824 Z" id="Fill-2"></path>
                        <polygon id="Fill-4" points="65.6862671 65.2230081 65.6862671 2.5076027 80.9604955 2.5076027 80.9604955 52.024427 105.290273 52.024427 105.290273 65.2230081"></polygon>
                        <polygon id="Fill-6" points="112.392915 65.2230081 112.392915 2.5076027 154.661803 2.5076027 154.661803 15.2632784 127.045556 15.2632784 127.045556 27.1331432 153.151298 27.1331432 153.151298 39.2687514 127.045556 39.2687514 127.045556 52.2901703 156.260171 52.2901703 156.260171 65.2230081"></polygon>
                        <path d="M192.044825,19.2497068 L184.05205,40.7749095 L199.858134,40.7749095 L192.044825,19.2497068 Z M208.916487,65.2232878 L204.03165,52.9105176 L179.701872,52.9105176 L175.08343,65.2232878 L158.567896,65.2232878 L184.940033,2.50788243 L199.681472,2.50788243 L225.788148,65.2232878 L208.916487,65.2232878 Z" id="Fill-8"></path>
                        <path d="M246.611276,40.2567568 L251.830742,40.2567568 L265.48043,65.4324324 L283.241009,65.4324324 L266.811469,38.4879324 C270.897122,37.2468649 274.093858,35.1283784 276.401677,32.2350405 C278.711365,29.3417027 279.864807,25.7415811 279.864807,21.4906216 C279.864807,17.8886351 279.184332,14.8638243 277.822448,12.4413649 C276.460564,10.0217027 274.639733,8.06545946 272.361825,6.58941892 C270.081113,5.11337838 267.506899,4.28631081 264.635445,3.66624324 C261.763991,3.04617568 258.821499,2.95945946 255.801424,2.95945946 L246.611276,2.95945946 L246.611276,15.0810811 L254.686306,15.0810811 C255.81451,15.0810811 256.990386,14.9952973 258.209258,15.1724595 C259.429065,15.3496216 260.530163,15.6032432 261.511617,16.1039595 C262.492136,16.6065405 263.295994,17.2713649 263.920386,18.1860811 C264.544777,19.1026622 264.857908,20.2756622 264.857908,21.7517027 C264.857908,23.3461622 264.514866,24.6347838 263.832522,25.6380811 C263.147374,26.6423108 262.271543,27.4041081 261.199421,27.9355946 C260.128234,28.4670811 258.939273,28.6945946 257.630668,28.8997297 C256.322062,29.1076622 255.042433,29.0675676 253.79365,29.0675676 L246.611276,29.0675676 L246.611276,40.2567568 Z" id="Fill-15"></path>
                    </g>
                </g>
                <g id="Border" stroke-width="40" stroke="#FFFFFF">
                    <use mask="url(#mask-2)" xlink:href="#path-1"></use>
                    <use id="Central-Line" mask="url(#mask-4)" xlink:href="#path-3"></use>
                </g>
            </g>
        </g>
    </g>
</svg>