<?xml version="1.0" encoding="UTF-8" standalone="no"?>
<svg width="100px" height="100px" viewBox="0 0 100 100" version="1.1" xmlns="http://www.w3.org/2000/svg" xmlns:xlink="http://www.w3.org/1999/xlink">
    <!-- Generator: Sketch 39.1 (31720) - http://www.bohemiancoding.com/sketch -->
    <title>github-logo</title>
    <desc>Created with Sketch.</desc>
    <defs></defs>
    <g id="Home" stroke="none" stroke-width="1" fill="none" fill-rule="evenodd">
        <g id="github-logo" fill="#FFFFFF">
            <path d="M49.500236,22 C33.7620534,22 21,34.7596936 21,50.500236 C21,63.0923867 29.1661851,73.7754916 40.4902008,77.5440282 C41.9145519,77.8078493 42.4374746,76.9257711 42.4374746,76.1730077 C42.4374746,75.4933968 42.4110453,73.2483213 42.3987746,70.8668516 C34.4699814,72.5908922 32.7969116,67.5041937 32.7969116,67.5041937 C31.5004595,64.209969 29.6324736,63.3340261 29.6324736,63.3340261 C27.0466487,61.5651501 29.8273898,61.6014904 29.8273898,61.6014904 C32.6893066,61.8025419 34.1962492,64.5384475 34.1962492,64.5384475 C36.7381826,68.8955082 40.8635148,67.6358684 42.4898613,66.9076465 C42.7456593,65.0656179 43.4842641,63.8083378 44.2993252,63.0966342 C37.9690333,62.3759636 31.3145105,59.9321962 31.3145105,49.0116994 C31.3145105,45.9001201 32.4278452,43.3577148 34.2509957,41.3618298 C33.9550818,40.6439909 32.979557,37.7452619 34.5270876,33.8195653 C34.5270876,33.8195653 36.920356,33.0535872 42.3666818,36.740948 C44.6400745,36.1094763 47.0781784,35.7927965 49.500236,35.7819416 C51.9222935,35.7927965 54.3622852,36.1094763 56.6399255,36.740948 C62.079644,33.0535872 64.4696088,33.8195653 64.4696088,33.8195653 C66.0209149,37.7452619 65.0449182,40.6439909 64.7490043,41.3618298 C66.5764024,43.3577148 67.6821859,45.9001201 67.6821859,49.0116994 C67.6821859,59.9581536 61.0149203,62.3684123 54.6685821,63.0739805 C55.6908301,63.9584185 56.6016974,65.6928421 56.6016974,68.3518195 C56.6016974,72.1651915 56.5686607,75.2342952 56.5686607,76.1730077 C56.5686607,76.9314345 57.0816725,77.8201201 58.5263175,77.5402525 C69.8441979,73.7674684 78,63.0881391 78,50.500236 C78,34.7596936 65.2398344,22 49.500236,22" id="Fill-4"></path>
        </g>
    </g>
</svg>