<svg xmlns="http://www.w3.org/2000/svg" width="63" height="62" viewBox="0 0 63 62">
  <g fill="#FFFFFF" fill-rule="evenodd">
    <path d="M8.01463415 39.4682927C7.71219512 39.4682927 7.4097561 39.2792683 7.29634146 38.9390244 6.42682927 36.4060976 6.01097561 33.7219512 6.01097561 31 6.01097561 17.3146341 17.1634146 6.16219512 30.8487805 6.16219512 33.797561 6.16219512 36.6707317 6.65365854 39.3926829 7.67439024 39.7707317 7.82560976 39.997561 8.24146341 39.8463415 8.65731707 39.695122 9.03536585 39.2792683 9.26219512 38.8634146 9.11097561 36.2926829 8.16585366 33.6085366 7.67439024 30.8487805 7.67439024 17.995122 7.67439024 7.52317073 18.1463415 7.52317073 31 7.52317073 33.5329268 7.93902439 36.0658537 8.73292683 38.447561 8.88414634 38.8256098 8.65731707 39.2792683 8.24146341 39.3926829 8.20365854 39.4304878 8.12804878 39.4682927 8.01463415 39.4682927L8.01463415 39.4682927zM14.1390244 49.1085366C13.95 49.1085366 13.7609756 49.0329268 13.6097561 48.8817073 12.1353659 47.445122 10.8121951 45.8195122 9.71585366 44.0804878 9.48902439 43.7402439 9.60243902 43.2487805 9.94268293 43.0219512 10.2829268 42.795122 10.7743902 42.9085366 11.0012195 43.2487805 12.0219512 44.9121951 13.2695122 46.4243902 14.6682927 47.7853659 14.9707317 48.0878049 14.9707317 48.5414634 14.7060976 48.8439024 14.554878 49.0329268 14.3280488 49.1085366 14.1390244 49.1085366L14.1390244 49.1085366z"/>
    <path d="M54.3256098 50.5829268C54.1743902 50.5829268 53.9853659 50.545122 53.8341463 50.4317073 53.4939024 50.1670732 53.4560976 49.6756098 53.7207317 49.3731707 57.954878 44.1182927 60.1853659 37.7670732 60.1853659 31 60.1853659 14.8195122 47.0292683 1.66341463 30.8487805 1.66341463 24.2707317 1.66341463 18.0329268 3.7804878 12.8536585 7.82560976 12.5134146 8.0902439 12.0597561 8.01463415 11.795122 7.67439024 11.5304878 7.33414634 11.6060976 6.8804878 11.9463415 6.61585366 17.3902439 2.38170732 23.9304878.151219512 30.8487805.151219512 47.8609756.151219512 61.697561 13.9878049 61.697561 31 61.697561 37.9939024 59.2780488 44.8743902 54.9304878 50.3182927 54.7414634 50.4695122 54.5146341 50.5829268 54.3256098 50.5829268L54.3256098 50.5829268zM30.8487805 61.8487805C13.8365854 61.8487805 0 48.0121951 0 31 0 23.9304878 2.34390244 17.2768293 6.72926829 11.7573171 6.99390244 11.4170732 7.44756098 11.3792683 7.78780488 11.6439024 8.12804878 11.9085366 8.16585366 12.3621951 7.90121951 12.702439 3.74268293 17.9573171 1.51219512 24.2707317 1.51219512 31 1.51219512 47.1804878 14.6682927 60.3365854 30.8487805 60.3365854 37.4646341 60.3365854 43.702439 58.1817073 48.9195122 54.1365854 49.2597561 53.8719512 49.7134146 53.947561 49.9780488 54.25 50.2426829 54.5902439 50.1670732 55.0439024 49.8646341 55.3085366 44.345122 59.5804878 37.804878 61.8487805 30.8487805 61.8487805L30.8487805 61.8487805z"/>
    <path d="M25.5182927,48.995122 C25.4426829,48.995122 25.3670732,48.995122 25.2914634,48.9573171 C17.352439,46.5 12.0219512,39.2792683 12.0219512,31 C12.0219512,20.6414634 20.452439,12.1731707 30.8487805,12.1731707 C41.2073171,12.1731707 49.6756098,20.6036585 49.6756098,31 C49.6756098,33.7219512 49.1085366,36.3682927 47.9743902,38.8256098 C47.7853659,39.2036585 47.3695122,39.354878 46.9536585,39.2036585 C46.5756098,39.0146341 46.4243902,38.5987805 46.5756098,38.1829268 C47.5963415,35.9146341 48.1256098,33.495122 48.1256098,31 C48.1256098,21.4731707 40.3756098,13.6853659 30.8109756,13.6853659 C21.2841463,13.6853659 13.4963415,21.4353659 13.4963415,31 C13.4963415,38.6365854 18.4109756,45.2902439 25.6695122,47.5207317 C26.0853659,47.6341463 26.2743902,48.05 26.1609756,48.4658537 C26.1231707,48.8060976 25.8207317,48.995122 25.5182927,48.995122 L25.5182927,48.995122 Z"/>
    <path d="M18.8268293 31.7560976C18.4109756 31.7560976 18.0707317 31.4158537 18.0707317 31 18.0707317 28.202439 18.9780488 25.5182927 20.6414634 23.2878049 20.9060976 22.947561 21.3597561 22.8719512 21.7 23.1365854 22.0402439 23.4012195 22.1158537 23.854878 21.8512195 24.195122 20.3768293 26.1609756 19.5829268 28.504878 19.5829268 31 19.5829268 31.4158537 19.2426829 31.7560976 18.8268293 31.7560976L18.8268293 31.7560976zM30.8487805 43.7780488C26.3878049 43.7780488 22.3426829 41.5097561 19.9987805 37.7670732 19.7719512 37.4268293 19.8853659 36.9353659 20.2256098 36.7085366 20.5658537 36.4817073 21.0573171 36.595122 21.2841463 36.9353659 23.3634146 40.2621951 26.954878 42.2658537 30.8487805 42.2658537 37.0865854 42.2658537 42.1146341 37.2 42.1146341 31 42.1146341 24.7621951 37.0487805 19.7341463 30.8487805 19.7341463 29.1853659 19.7341463 27.5597561 20.0743902 26.047561 20.7926829 25.6695122 20.9817073 25.2158537 20.7926829 25.0268293 20.4146341 24.8378049 20.0365854 25.0268293 19.5829268 25.404878 19.3939024 27.1060976 18.6 28.9585366 18.1841463 30.8487805 18.1841463 37.9182927 18.1841463 43.6268293 23.9304878 43.6268293 30.9621951 43.6268293 37.9939024 37.8804878 43.7780488 30.8487805 43.7780488L30.8487805 43.7780488z"/>
    <path d="M30.8487805 37.7670732C27.1060976 37.7670732 24.0817073 34.7426829 24.0817073 31 24.0817073 27.2573171 27.1060976 24.2329268 30.8487805 24.2329268 34.5914634 24.2329268 37.6158537 27.2573171 37.6158537 31 37.6158537 34.7426829 34.5914634 37.7670732 30.8487805 37.7670732L30.8487805 37.7670732zM30.8487805 25.745122C27.9378049 25.745122 25.5939024 28.0890244 25.5939024 31 25.5939024 33.9109756 27.9378049 36.254878 30.8487805 36.254878 33.7597561 36.254878 36.1036585 33.9109756 36.1036585 31 36.1036585 28.0890244 33.7597561 25.745122 30.8487805 25.745122L30.8487805 25.745122zM6.80487805 32.1341463L.756097561 32.1341463C.340243902 32.1341463 0 31.7939024 0 31.3780488 0 30.9621951.340243902 30.6219512.756097561 30.6219512L6.80487805 30.6219512C7.22073171 30.6219512 7.56097561 30.9621951 7.56097561 31.3780488 7.56097561 31.7939024 7.22073171 32.1341463 6.80487805 32.1341463L6.80487805 32.1341463z"/>
    <path d="M24.5731707 32.1341463L12.8536585 32.1341463C12.4378049 32.1341463 12.097561 31.7939024 12.097561 31.3780488 12.097561 30.9621951 12.4378049 30.6219512 12.8536585 30.6219512L24.5731707 30.6219512C24.9890244 30.6219512 25.3292683 30.9621951 25.3292683 31.3780488 25.3292683 31.7939024 24.9890244 32.1341463 24.5731707 32.1341463L24.5731707 32.1341463zM42.8707317 32.1341463L36.8597561 32.1341463C36.4439024 32.1341463 36.1036585 31.7939024 36.1036585 31.3780488 36.1036585 30.9621951 36.4439024 30.6219512 36.8597561 30.6219512L42.8707317 30.6219512C43.2865854 30.6219512 43.6268293 30.9621951 43.6268293 31.3780488 43.6268293 31.7939024 43.2865854 32.1341463 42.8707317 32.1341463L42.8707317 32.1341463zM41.547561 26.2365854C41.2829268 26.2365854 41.0560976 26.1231707 40.904878 25.8585366 40.6780488 25.5182927 40.7914634 25.0268293 41.1695122 24.8L46.3109756 21.6621951C46.6512195 21.4353659 47.1426829 21.5487805 47.3695122 21.9268293 47.5963415 22.2670732 47.4829268 22.7585366 47.104878 22.9853659L41.9634146 26.1231707C41.8121951 26.1987805 41.6609756 26.2365854 41.547561 26.2365854L41.547561 26.2365854zM54.9304878 31.7560976C54.5146341 31.7560976 54.1743902 31.4158537 54.1743902 31 54.1743902 22.947561 50.0914634 15.5378049 43.2487805 11.2658537 43.097561 11.1902439 42.9841463 11.0390244 42.9085366 10.8878049 42.795122 10.6231707 42.8329268 10.3585366 42.9841463 10.1317073L46.3109756 5.14146341C46.5378049 4.80121951 47.0292683 4.68780488 47.3695122 4.91463415 47.7097561 5.14146341 47.8231707 5.63292683 47.5963415 5.97317073L44.6853659 10.3585366C51.6036585 14.9707317 55.6865854 22.645122 55.6865854 31 55.6865854 31.4158537 55.3463415 31.7560976 54.9304878 31.7560976L54.9304878 31.7560976zM30.6219512 49.902439C30.4707317 49.902439 30.3195122 49.8646341 30.2060976 49.7890244 29.9792683 49.6378049 29.8658537 49.4109756 29.8658537 49.1463415L29.8658537 43.097561C29.8658537 42.6817073 30.2060976 42.3414634 30.6219512 42.3414634 31.0378049 42.3414634 31.3780488 42.6817073 31.3780488 43.097561L31.3780488 48.2768293C36.0280488 48.1256098 40.4512195 46.1219512 43.5890244 42.6817073 43.8536585 42.3792683 44.345122 42.3414634 44.647561 42.6439024 44.95 42.9085366 44.9878049 43.4 44.6853659 43.702439 41.1695122 47.5585366 36.1792683 49.7512195 30.9621951 49.7890244L30.8865854 49.8268293C30.8109756 49.8646341 30.7353659 49.902439 30.6219512 49.902439L30.6219512 49.902439zM53.645122 39.4304878C53.5695122 39.4304878 53.4560976 39.4304878 53.3804878 39.3926829L47.747561 37.2378049C47.3695122 37.0865854 47.1426829 36.6707317 47.2939024 36.254878 47.445122 35.8768293 47.8609756 35.6878049 48.2768293 35.8012195L53.9097561 37.9560976C54.2878049 38.1073171 54.5146341 38.5231707 54.3634146 38.9390244 54.25 39.2414634 53.9853659 39.4304878 53.645122 39.4304878L53.645122 39.4304878zM12.7780488 47.6719512C12.5890244 47.6719512 12.4 47.5963415 12.2487805 47.445122 11.9463415 47.1426829 11.9463415 46.6890244 12.2487805 46.3865854L16.4829268 42.0768293C16.7853659 41.7743902 17.2390244 41.7743902 17.5414634 42.0768293 17.8439024 42.3792683 17.8439024 42.8329268 17.5414634 43.1353659L13.3073171 47.445122C13.1939024 47.5963415 13.004878 47.6719512 12.7780488 47.6719512L12.7780488 47.6719512zM30.6219512 62C30.2060976 62 29.8658537 61.6597561 29.8658537 61.2439024L29.8658537 55.5731707C29.8658537 55.1573171 30.2060976 54.8170732 30.6219512 54.8170732 31.0378049 54.8170732 31.3780488 55.1573171 31.3780488 55.5731707L31.3780488 61.2439024C31.3780488 61.6597561 31.0378049 62 30.6219512 62L30.6219512 62z"/>
    <path d="M13.95 56.6695122C13.7987805 56.6695122 13.647561 56.6317073 13.5341463 56.5182927 13.1939024 56.2914634 13.1182927 55.8 13.345122 55.4597561L16.7853659 50.545122C16.9743902 50.2804878 17.3146341 50.1670732 17.6170732 50.2426829 17.6926829 50.2804878 17.7682927 50.3182927 17.8439024 50.3560976 21.5865854 52.8890244 26.1609756 54.25 30.8109756 54.25 41.2829268 54.25 50.545122 47.2182927 53.304878 37.1243902 53.4182927 36.7085366 53.8341463 36.4817073 54.25 36.595122 54.6658537 36.7085366 54.8926829 37.1243902 54.7792683 37.5402439 51.8304878 48.2768293 42.0012195 55.8 30.8487805 55.8 26.1609756 55.8 21.4731707 54.4768293 17.6170732 52.0195122L14.5926829 56.3292683C14.4036585 56.5560976 14.1768293 56.6695122 13.95 56.6695122L13.95 56.6695122zM30.6219512 25.7073171C30.2060976 25.7073171 29.8658537 25.3670732 29.8658537 24.9512195L29.8658537 12.8536585C29.8658537 12.4378049 30.2060976 12.097561 30.6219512 12.097561 31.0378049 12.097561 31.3780488 12.4378049 31.3780488 12.8536585L31.3780488 24.9512195C31.3780488 25.3670732 31.0378049 25.7073171 30.6219512 25.7073171L30.6219512 25.7073171z"/>
  </g>
</svg>
