<svg xmlns="http://www.w3.org/2000/svg" width="63" height="62" viewBox="0 0 63 62">
  <g fill="#FFFFFF" fill-rule="evenodd" transform="translate(-13 -13)">
    <g transform="rotate(45 21.808 53.192)">
      <path d="M54.3256098 50.5829268C54.1743902 50.5829268 53.9853659 50.545122 53.8341463 50.4317073 53.4939024 50.1670732 53.4560976 49.6756098 53.7207317 49.3731707 57.954878 44.1182927 60.1853659 37.7670732 60.1853659 31 60.1853659 14.8195122 47.0292683 1.66341463 30.8487805 1.66341463 24.2707317 1.66341463 18.0329268 3.7804878 12.8536585 7.82560976 12.5134146 8.0902439 12.0597561 8.01463415 11.795122 7.67439024 11.5304878 7.33414634 11.6060976 6.8804878 11.9463415 6.61585366 17.3902439 2.38170732 23.9304878.151219512 30.8487805.151219512 47.8609756.151219512 61.697561 13.9878049 61.697561 31 61.697561 37.9939024 59.2780488 44.8743902 54.9304878 50.3182927 54.7414634 50.4695122 54.5146341 50.5829268 54.3256098 50.5829268L54.3256098 50.5829268zM30.8487805 61.8487805C13.8365854 61.8487805 0 48.0121951 0 31 0 23.9304878 2.34390244 17.2768293 6.72926829 11.7573171 6.99390244 11.4170732 7.44756098 11.3792683 7.78780488 11.6439024 8.12804878 11.9085366 8.16585366 12.3621951 7.90121951 12.702439 3.74268293 17.9573171 1.51219512 24.2707317 1.51219512 31 1.51219512 47.1804878 14.6682927 60.3365854 30.8487805 60.3365854 37.4646341 60.3365854 43.702439 58.1817073 48.9195122 54.1365854 49.2597561 53.8719512 49.7134146 53.947561 49.9780488 54.25 50.2426829 54.5902439 50.1670732 55.0439024 49.8646341 55.3085366 44.345122 59.5804878 37.804878 61.8487805 30.8487805 61.8487805L30.8487805 61.8487805z"/>
    </g>
    <path d="M43.8487805,57.3835366 C36.4467128,57.3835366 30.4652439,51.4020677 30.4652439,44 C30.4652439,36.5979323 36.4467128,30.6164634 43.8487805,30.6164634 C51.2508482,30.6164634 57.2323171,36.5979323 57.2323171,44 C57.2323171,51.4020677 51.2508482,57.3835366 43.8487805,57.3835366 L43.8487805,57.3835366 Z M43.8487805,33.6071978 C38.0916167,33.6071978 33.4559783,38.2428362 33.4559783,44 C33.4559783,49.7571638 38.0916167,54.3928022 43.8487805,54.3928022 C49.6059443,54.3928022 54.2415826,49.7571638 54.2415826,44 C54.2415826,38.2428362 49.6059443,33.6071978 43.8487805,33.6071978 L43.8487805,33.6071978 Z"/>
  </g>
</svg>
