<?xml version="1.0" encoding="UTF-8" standalone="no"?>
<svg width="45px" height="45px" viewBox="0 0 45 45" version="1.1" xmlns="http://www.w3.org/2000/svg" xmlns:xlink="http://www.w3.org/1999/xlink">
    <!-- Generator: Sketch 39.1 (31720) - http://www.bohemiancoding.com/sketch -->
    <title>icon-arrow-left-circle</title>
    <desc>Created with Sketch.</desc>
    <defs></defs>
    <g id="Home" stroke="none" stroke-width="1" fill="none" fill-rule="evenodd">
        <g id="Desktop" transform="translate(-581.000000, -4279.000000)" fill="#5B13FE">
            <g id="Newsletter-Copy" transform="translate(-95.000000, 4163.000000)">
                <g id="Group-2" transform="translate(226.000000, 114.000000)">
                    <g id="Page-1" transform="translate(450.000000, 2.000000)">
                        <g id="icon-arrow-left-circle">
                            <path d="M22.5,45 C10.0944,45 0,34.9056 0,22.5 C0,10.0944 10.0944,0 22.5,0 C34.9056,0 45,10.0944 45,22.5 C45,34.9056 34.9056,45 22.5,45 L22.5,45 Z M22.5,2.8128 C11.6436,2.8128 2.8128,11.6436 2.8128,22.5 C2.8128,33.3564 11.6436,42.1872 22.5,42.1872 C33.3564,42.1872 42.1872,33.3564 42.1872,22.5 C42.1872,11.6436 33.3564,2.8128 22.5,2.8128 L22.5,2.8128 Z" id="Fill-1"></path>
                            <path d="M23.62538,32.4 C23.2593835,32.4 22.8964269,32.2612157 22.6185857,31.9854572 C22.0604714,31.4315267 22.0604714,30.5378762 22.6185857,29.9863593 L30.1610314,22.5004526 L22.6185857,15.0145458 C22.0604714,14.4606153 22.0604714,13.5669648 22.6185857,13.0154479 C23.1760919,12.4615174 24.0764919,12.4615174 24.6321743,13.0154479 L33.1814143,21.5012053 C33.7395286,22.0551358 33.7395286,22.9481829 33.1814143,23.4996998 L24.6321743,31.9854572 C24.3543331,32.2612157 23.9907685,32.4 23.62538,32.4 L23.62538,32.4 Z" id="Fill-2"></path>
                            <path d="M31.774848,24 L11.825152,24 C11.039008,24 10.4,23.3274317 10.4,22.5 C10.4,21.6725683 11.039008,21 11.825152,21 L31.774848,21 C32.563424,21 33.2,21.6725683 33.2,22.5 C33.2,23.3274317 32.563424,24 31.774848,24 L31.774848,24 Z" id="Fill-3"></path>
                        </g>
                    </g>
                </g>
            </g>
        </g>
    </g>
</svg>