<svg xmlns="http://www.w3.org/2000/svg" width="63" height="62" viewBox="0 0 63 62">
  <path fill="#FFFFFF" fill-rule="evenodd" d="M22.213354,61.6648002 C22.0259055,61.6648002 21.8618882,61.6179381 21.6978708,61.547645 C21.2058186,61.3133344 20.948077,60.7744201 21.0652322,60.2355058 L26.2669267,36.7575877 L14.7622782,32.4228423 C14.4108123,32.282256 14.1296397,32.0010833 14.0359154,31.6261864 C13.9421912,31.2512895 14.0359154,30.8763926 14.270226,30.5717889 L38.8962659,1.42355521 C39.2477317,1.0017962 39.8335081,0.884640921 40.3021292,1.11895148 C40.7941814,1.35326204 41.051923,1.89217633 40.9347678,2.43109062 L35.7330733,25.9090087 L47.2377218,30.2437541 C47.5891877,30.3843404 47.8703603,30.6655131 47.9640846,31.04041 C48.0578088,31.4153069 47.9640846,31.7902038 47.729774,32.0948075 L23.1037341,61.2664723 C22.8694236,61.5242139 22.5413888,61.6648002 22.213354,61.6648002 L22.213354,61.6648002 Z M17.1288148,30.8295305 L28.0242559,34.9299653 C28.5631702,35.1408448 28.891205,35.7031902 28.7506186,36.2889666 L24.3690111,56.11164 L44.8477541,31.860497 L33.9523131,27.7600622 C33.4133988,27.5491827 33.085364,26.9868373 33.2259503,26.4010609 L37.6075578,6.57838753 L17.1288148,30.8295305 L17.1288148,30.8295305 Z"/>
</svg>
