<?xml version="1.0" encoding="UTF-8" standalone="no"?>
<svg width="100px" height="100px" viewBox="0 0 100 100" version="1.1" xmlns="http://www.w3.org/2000/svg" xmlns:xlink="http://www.w3.org/1999/xlink">
    <!-- Generator: Sketch 39.1 (31720) - http://www.bohemiancoding.com/sketch -->
    <title>twitter-logo</title>
    <desc>Created with Sketch.</desc>
    <defs></defs>
    <g id="Home" stroke="none" stroke-width="1" fill="none" fill-rule="evenodd">
        <g id="twitter-logo" fill="#FFFFFF">
            <path d="M38.655,75.7849226 C62.24,75.7849226 75.14,56.2449226 75.14,39.2999226 C75.14,38.7449226 75.14,38.1924226 75.1025,37.6424226 C77.6120784,35.8271997 79.7783887,33.5796211 81.5,31.0049226 C79.1596976,32.041927 76.6770732,32.7219942 74.135,33.0224226 C76.81186,31.4198777 78.8153088,28.8993525 79.7725,25.9299226 C77.2553937,27.4235609 74.5016153,28.4762026 71.63,29.0424226 C67.6552069,24.8159083 61.3392984,23.781454 56.2238732,26.5191224 C51.108448,29.2567908 48.4656875,35.0857369 49.7775,40.7374226 C39.4672393,40.2205464 29.8611895,35.3507308 23.35,27.3399226 C19.9465569,33.1990344 21.6849697,40.6945713 27.32,44.4574226 C25.279353,44.3969414 23.2831984,43.8464555 21.5,42.8524226 L21.5,43.0149226 C21.5016703,49.118905 25.8043787,54.3762605 31.7875,55.5849226 C29.899674,56.0997727 27.9189515,56.1750333 25.9975,55.8049226 C27.6773698,61.0284797 32.4914364,64.6068822 37.9775,64.7099226 C33.4368376,68.2785024 27.8276488,70.2157419 22.0525,70.2099226 C21.0322589,70.2079639 20.0130102,70.1461913 19,70.0249226 C24.8640899,73.788114 31.6872835,75.7842149 38.655,75.7749226" id="Shape"></path>
        </g>
    </g>
</svg>